<?xml version="1.0" encoding="UTF-8" standalone="no"?>
<!DOCTYPE svg PUBLIC "-//W3C//DTD SVG 1.1//EN"
 "http://www.w3.org/Graphics/SVG/1.1/DTD/svg11.dtd">
<!-- Generated by graphviz version 2.40.1 (20161225.0304)
 -->
<!-- Title: dependencies Pages: 1 -->
<svg width="1708pt" height="284pt"
 viewBox="0.00 0.00 1708.00 284.00" xmlns="http://www.w3.org/2000/svg" xmlns:xlink="http://www.w3.org/1999/xlink">
<g id="graph0" class="graph" transform="scale(1 1) rotate(0) translate(4 280)">
<title>dependencies</title>
<polygon fill="#ffffff" stroke="transparent" points="-4,4 -4,-280 1704,-280 1704,4 -4,4"/>
<text text-anchor="start" x="829.0091" y="-42.4" font-family="sans-serif" font-weight="bold" font-size="14.00" fill="#000000">Legend</text>
<polygon fill="#ffffb3" stroke="transparent" points="616,-10 616,-30 636,-30 636,-10 616,-10"/>
<text text-anchor="start" x="639.629" y="-15.4" font-family="sans-serif" font-size="14.00" fill="#000000"> &#160;Declarations</text>
<polygon fill="#8dd3c7" stroke="transparent" points="729,-10 729,-30 749,-30 749,-10 729,-10"/>
<text text-anchor="start" x="752.7251" y="-15.4" font-family="sans-serif" font-size="14.00" fill="#000000"> &#160;Module</text>
<polygon fill="#80b1d3" stroke="transparent" points="815,-10 815,-30 835,-30 835,-10 815,-10"/>
<text text-anchor="start" x="838.7812" y="-15.4" font-family="sans-serif" font-size="14.00" fill="#000000"> &#160;Bootstrap</text>
<polygon fill="#fdb462" stroke="transparent" points="912,-10 912,-30 932,-30 932,-10 912,-10"/>
<text text-anchor="start" x="935.6732" y="-15.4" font-family="sans-serif" font-size="14.00" fill="#000000"> &#160;Providers</text>
<polygon fill="#fb8072" stroke="transparent" points="1008,-10 1008,-30 1028,-30 1028,-10 1008,-10"/>
<text text-anchor="start" x="1031.7258" y="-15.4" font-family="sans-serif" font-size="14.00" fill="#000000"> &#160;Exports</text>
<g id="clust1" class="cluster">
<title>cluster_AppModule</title>
<polygon fill="none" stroke="#000000" stroke-dasharray="1,5" points="8,-70 8,-268 1692,-268 1692,-70 8,-70"/>
</g>
<g id="clust2" class="cluster">
<title>cluster_AppModule_declarations</title>
<polygon fill="none" stroke="#000000" points="285,-78 285,-130 1684,-130 1684,-78 285,-78"/>
</g>
<g id="clust13" class="cluster">
<title>cluster_AppModule_imports</title>
<polygon fill="none" stroke="#000000" points="16,-78 16,-130 277,-130 277,-78 16,-78"/>
</g>
<g id="clust15" class="cluster">
<title>cluster_AppModule_bootstrap</title>
<polygon fill="none" stroke="#000000" points="807,-208 807,-260 931,-260 931,-208 807,-208"/>
</g>
<!-- AppComponent -->
<g id="node1" class="node">
<title>AppComponent</title>
<polygon fill="#ffffb3" stroke="#000000" points="1675.9399,-122 1570.0601,-122 1570.0601,-86 1675.9399,-86 1675.9399,-122"/>
<text text-anchor="middle" x="1623" y="-99.8" font-family="Times,serif" font-size="14.00" fill="#000000">AppComponent</text>
</g>
<!-- AppModule -->
<g id="node11" class="node">
<title>AppModule</title>
<polygon fill="#8dd3c7" stroke="#000000" points="910.6571,-187 907.6571,-191 886.6571,-191 883.6571,-187 827.3429,-187 827.3429,-151 910.6571,-151 910.6571,-187"/>
<text text-anchor="middle" x="869" y="-164.8" font-family="Times,serif" font-size="14.00" fill="#000000">AppModule</text>
</g>
<!-- AppComponent&#45;&gt;AppModule -->
<g id="edge1" class="edge">
<title>AppComponent&#45;&gt;AppModule</title>
<path fill="none" stroke="#000000" d="M1623,-122.2479C1623,-145.0179 1623,-181 1623,-181 1623,-181 920.8828,-181 920.8828,-181"/>
<polygon fill="#000000" stroke="#000000" points="920.8828,-177.5001 910.8828,-181 920.8827,-184.5001 920.8828,-177.5001"/>
</g>
<!-- CardsComponent -->
<g id="node2" class="node">
<title>CardsComponent</title>
<polygon fill="#ffffb3" stroke="#000000" points="1551.9888,-122 1438.0112,-122 1438.0112,-86 1551.9888,-86 1551.9888,-122"/>
<text text-anchor="middle" x="1495" y="-99.8" font-family="Times,serif" font-size="14.00" fill="#000000">CardsComponent</text>
</g>
<!-- CardsComponent&#45;&gt;AppModule -->
<g id="edge2" class="edge">
<title>CardsComponent&#45;&gt;AppModule</title>
<path fill="none" stroke="#000000" d="M1495,-122.2843C1495,-143.3211 1495,-175 1495,-175 1495,-175 921.0457,-175 921.0457,-175"/>
<polygon fill="#000000" stroke="#000000" points="921.0457,-171.5001 911.0457,-175 921.0456,-178.5001 921.0457,-171.5001"/>
</g>
<!-- DetailComponent -->
<g id="node3" class="node">
<title>DetailComponent</title>
<polygon fill="#ffffb3" stroke="#000000" points="1419.5409,-122 1304.4591,-122 1304.4591,-86 1419.5409,-86 1419.5409,-122"/>
<text text-anchor="middle" x="1362" y="-99.8" font-family="Times,serif" font-size="14.00" fill="#000000">DetailComponent</text>
</g>
<!-- DetailComponent&#45;&gt;AppModule -->
<g id="edge3" class="edge">
<title>DetailComponent&#45;&gt;AppModule</title>
<path fill="none" stroke="#000000" d="M1362,-122.1061C1362,-141.3391 1362,-169 1362,-169 1362,-169 921.0329,-169 921.0329,-169"/>
<polygon fill="#000000" stroke="#000000" points="921.0329,-165.5001 911.0329,-169 921.0329,-172.5001 921.0329,-165.5001"/>
</g>
<!-- FeedbackComponent -->
<g id="node4" class="node">
<title>FeedbackComponent</title>
<polygon fill="#ffffb3" stroke="#000000" points="1286.4734,-122 1151.5266,-122 1151.5266,-86 1286.4734,-86 1286.4734,-122"/>
<text text-anchor="middle" x="1219" y="-99.8" font-family="Times,serif" font-size="14.00" fill="#000000">FeedbackComponent</text>
</g>
<!-- FeedbackComponent&#45;&gt;AppModule -->
<g id="edge4" class="edge">
<title>FeedbackComponent&#45;&gt;AppModule</title>
<path fill="none" stroke="#000000" d="M1219,-122.0225C1219,-139.3734 1219,-163 1219,-163 1219,-163 920.8705,-163 920.8705,-163"/>
<polygon fill="#000000" stroke="#000000" points="920.8706,-159.5001 910.8705,-163 920.8705,-166.5001 920.8706,-159.5001"/>
</g>
<!-- ListComponent -->
<g id="node5" class="node">
<title>ListComponent</title>
<polygon fill="#ffffb3" stroke="#000000" points="1133.6109,-122 1030.3891,-122 1030.3891,-86 1133.6109,-86 1133.6109,-122"/>
<text text-anchor="middle" x="1082" y="-99.8" font-family="Times,serif" font-size="14.00" fill="#000000">ListComponent</text>
</g>
<!-- ListComponent&#45;&gt;AppModule -->
<g id="edge5" class="edge">
<title>ListComponent&#45;&gt;AppModule</title>
<path fill="none" stroke="#000000" d="M1082,-122.2396C1082,-137.5706 1082,-157 1082,-157 1082,-157 920.8278,-157 920.8278,-157"/>
<polygon fill="#000000" stroke="#000000" points="920.8278,-153.5001 910.8278,-157 920.8278,-160.5001 920.8278,-153.5001"/>
</g>
<!-- LogSigninComponent -->
<g id="node6" class="node">
<title>LogSigninComponent</title>
<polygon fill="#ffffb3" stroke="#000000" points="1012.4495,-122 871.5505,-122 871.5505,-86 1012.4495,-86 1012.4495,-122"/>
<text text-anchor="middle" x="942" y="-99.8" font-family="Times,serif" font-size="14.00" fill="#000000">LogSigninComponent</text>
</g>
<!-- LogSigninComponent&#45;&gt;AppModule -->
<g id="edge6" class="edge">
<title>LogSigninComponent&#45;&gt;AppModule</title>
<path fill="none" stroke="#000000" d="M891.3019,-122.1061C891.3019,-122.1061 891.3019,-140.991 891.3019,-140.991"/>
<polygon fill="#000000" stroke="#000000" points="887.802,-140.9909 891.3019,-150.991 894.802,-140.991 887.802,-140.9909"/>
</g>
<!-- LoginComponent -->
<g id="node7" class="node">
<title>LoginComponent</title>
<polygon fill="#ffffb3" stroke="#000000" points="853.2758,-122 738.7242,-122 738.7242,-86 853.2758,-86 853.2758,-122"/>
<text text-anchor="middle" x="796" y="-99.8" font-family="Times,serif" font-size="14.00" fill="#000000">LoginComponent</text>
</g>
<!-- LoginComponent&#45;&gt;AppModule -->
<g id="edge7" class="edge">
<title>LoginComponent&#45;&gt;AppModule</title>
<path fill="none" stroke="#000000" d="M840.2798,-122.1061C840.2798,-122.1061 840.2798,-140.991 840.2798,-140.991"/>
<polygon fill="#000000" stroke="#000000" points="836.7799,-140.9909 840.2798,-150.991 843.7799,-140.991 836.7799,-140.9909"/>
</g>
<!-- MenuComponent -->
<g id="node8" class="node">
<title>MenuComponent</title>
<polygon fill="#ffffb3" stroke="#000000" points="720.9916,-122 607.0084,-122 607.0084,-86 720.9916,-86 720.9916,-122"/>
<text text-anchor="middle" x="664" y="-99.8" font-family="Times,serif" font-size="14.00" fill="#000000">MenuComponent</text>
</g>
<!-- MenuComponent&#45;&gt;AppModule -->
<g id="edge8" class="edge">
<title>MenuComponent&#45;&gt;AppModule</title>
<path fill="none" stroke="#000000" d="M664,-122.2396C664,-137.5706 664,-157 664,-157 664,-157 817.0205,-157 817.0205,-157"/>
<polygon fill="#000000" stroke="#000000" points="817.0205,-160.5001 827.0205,-157 817.0205,-153.5001 817.0205,-160.5001"/>
</g>
<!-- ProfileComponent -->
<g id="node9" class="node">
<title>ProfileComponent</title>
<polygon fill="#ffffb3" stroke="#000000" points="588.9328,-122 469.0672,-122 469.0672,-86 588.9328,-86 588.9328,-122"/>
<text text-anchor="middle" x="529" y="-99.8" font-family="Times,serif" font-size="14.00" fill="#000000">ProfileComponent</text>
</g>
<!-- ProfileComponent&#45;&gt;AppModule -->
<g id="edge9" class="edge">
<title>ProfileComponent&#45;&gt;AppModule</title>
<path fill="none" stroke="#000000" d="M529,-122.0225C529,-139.3734 529,-163 529,-163 529,-163 817.3093,-163 817.3093,-163"/>
<polygon fill="#000000" stroke="#000000" points="817.3094,-166.5001 827.3093,-163 817.3093,-159.5001 817.3094,-166.5001"/>
</g>
<!-- RegistrazioneComponent -->
<g id="node10" class="node">
<title>RegistrazioneComponent</title>
<polygon fill="#ffffb3" stroke="#000000" points="451.3047,-122 292.6953,-122 292.6953,-86 451.3047,-86 451.3047,-122"/>
<text text-anchor="middle" x="372" y="-99.8" font-family="Times,serif" font-size="14.00" fill="#000000">RegistrazioneComponent</text>
</g>
<!-- RegistrazioneComponent&#45;&gt;AppModule -->
<g id="edge10" class="edge">
<title>RegistrazioneComponent&#45;&gt;AppModule</title>
<path fill="none" stroke="#000000" d="M372,-122.1061C372,-141.3391 372,-169 372,-169 372,-169 817.0544,-169 817.0544,-169"/>
<polygon fill="#000000" stroke="#000000" points="817.0544,-172.5001 827.0544,-169 817.0544,-165.5001 817.0544,-172.5001"/>
</g>
<!-- AppComponent  -->
<g id="node14" class="node">
<title>AppComponent </title>
<polygon fill="#80b1d3" stroke="#000000" points="923.439,-252 814.561,-252 814.561,-216 923.439,-216 923.439,-252"/>
<text text-anchor="middle" x="869" y="-229.8" font-family="Times,serif" font-size="14.00" fill="#000000">AppComponent </text>
</g>
<!-- AppModule&#45;&gt;AppComponent  -->
<g id="edge13" class="edge">
<title>AppModule&#45;&gt;AppComponent </title>
<path fill="none" stroke="#000000" stroke-dasharray="1,5" d="M869,-187.1061C869,-187.1061 869,-205.991 869,-205.991"/>
<polygon fill="#000000" stroke="#000000" points="865.5001,-205.9909 869,-215.991 872.5001,-205.991 865.5001,-205.9909"/>
</g>
<!-- AppRoutingModule -->
<g id="node12" class="node">
<title>AppRoutingModule</title>
<polygon fill="#8dd3c7" stroke="#000000" points="269.2744,-122 266.2744,-126 245.2744,-126 242.2744,-122 140.7256,-122 140.7256,-86 269.2744,-86 269.2744,-122"/>
<text text-anchor="middle" x="205" y="-99.8" font-family="Times,serif" font-size="14.00" fill="#000000">AppRoutingModule</text>
</g>
<!-- AppRoutingModule&#45;&gt;AppModule -->
<g id="edge11" class="edge">
<title>AppRoutingModule&#45;&gt;AppModule</title>
<path fill="none" stroke="#000000" d="M205,-122.2843C205,-143.3211 205,-175 205,-175 205,-175 817.2123,-175 817.2123,-175"/>
<polygon fill="#000000" stroke="#000000" points="817.2123,-178.5001 827.2123,-175 817.2123,-171.5001 817.2123,-178.5001"/>
</g>
<!-- SharedModule -->
<g id="node13" class="node">
<title>SharedModule</title>
<polygon fill="#8dd3c7" stroke="#000000" points="122.4231,-122 119.4231,-126 98.4231,-126 95.4231,-122 23.5769,-122 23.5769,-86 122.4231,-86 122.4231,-122"/>
<text text-anchor="middle" x="73" y="-99.8" font-family="Times,serif" font-size="14.00" fill="#000000">SharedModule</text>
</g>
<!-- SharedModule&#45;&gt;AppModule -->
<g id="edge12" class="edge">
<title>SharedModule&#45;&gt;AppModule</title>
<path fill="none" stroke="#000000" d="M73,-122.2479C73,-145.0179 73,-181 73,-181 73,-181 817.3243,-181 817.3243,-181"/>
<polygon fill="#000000" stroke="#000000" points="817.3244,-184.5001 827.3243,-181 817.3243,-177.5001 817.3244,-184.5001"/>
</g>
</g>
</svg>
